<svg width="222" height="28" viewBox="0 0 222 28" fill="none" xmlns="http://www.w3.org/2000/svg">
<g clip-path="url(#clip0_4154_3250)">
<path d="M218.613 0.405725C218.091 0.753968 217.562 1.07985 217.026 1.38656C216.783 1.56228 216.543 1.7348 216.3 1.90732C216.055 2.08304 215.803 2.2364 215.55 2.38975C214.111 3.12138 212.603 3.60061 211.113 4.11819C209.857 4.55589 208.616 5.04151 207.381 5.56867C205.897 6.20125 204.458 7.02234 203.035 7.8562C202.012 8.45684 201.017 9.13416 200.002 9.75077C199.497 10.0064 198.987 10.2268 198.46 10.3738C198.391 10.3738 198.324 10.3738 198.255 10.3738C197.962 10.1501 197.687 9.89454 197.414 9.62937C196.972 9.14055 196.537 8.64215 196.09 8.15972C195.638 7.6709 195.177 7.19167 194.71 6.72202C194.469 6.47921 194.22 6.25237 193.968 6.03192C193.381 5.52713 192.714 5.19486 192.069 4.8562C191.503 4.55908 190.885 4.47282 190.286 4.37058C189.767 4.28432 189.27 4.27154 188.748 4.30668C187.852 4.37378 186.963 4.6102 186.098 4.90413C185.327 5.16291 184.577 5.51116 183.827 5.86259C180.775 7.2971 177.886 9.26515 174.939 11.0383C173.527 11.8115 172.104 12.5431 170.6 12.9201C170.097 12.9808 169.6 12.9904 169.092 12.9457C168.866 12.8818 168.645 12.8083 168.427 12.7156C168.007 12.4153 167.614 12.0703 167.226 11.7029C166.61 11.0287 166.013 10.329 165.409 9.63895C164.39 8.47601 163.302 7.43128 162.083 6.68368C161.4 6.26196 160.701 5.91691 159.977 5.65493C159.233 5.38975 158.444 5.2971 157.68 5.21723C156.562 5.10221 155.422 5.35141 154.327 5.63895C153.459 5.86579 152.606 6.20764 151.775 6.607C150.706 7.12138 149.657 7.69966 148.62 8.32585C147.73 8.86259 146.869 9.46643 146.008 10.0862C144.196 11.3834 142.456 12.8913 140.59 14.0511C140.119 14.2907 139.648 14.4888 139.157 14.6326C138.983 14.6421 138.813 14.6453 138.639 14.6358C138.502 14.591 138.368 14.5399 138.233 14.4824C137.63 14.0703 137.076 13.5687 136.529 13.0351C135.859 12.3195 135.2 11.591 134.525 10.885C133.676 9.99358 132.801 9.09263 131.853 8.39614C130.838 7.65493 129.772 7.04151 128.644 6.68368C127.957 6.46962 127.225 6.38017 126.52 6.36419C126.047 6.35141 125.549 6.46962 125.088 6.55908C124.729 6.62937 124.381 6.71882 124.027 6.83065C123.471 7.00636 122.939 7.2971 122.412 7.58783C121.801 7.92649 121.197 8.27154 120.617 8.69326C118.749 10.0479 117.012 11.6901 115.274 13.3163C114.441 14.0926 113.608 14.8626 112.771 15.6294C111.681 16.623 110.573 17.5751 109.379 18.3259C109.009 18.508 108.637 18.6549 108.253 18.7699C108.115 18.7763 107.98 18.7795 107.842 18.7699C107.579 18.6837 107.325 18.5814 107.072 18.4632C106.492 18.0735 105.96 17.6134 105.439 17.1086C104.806 16.377 104.205 15.6134 103.631 14.7987C103.33 14.3706 103.027 13.9361 102.72 13.5112C102.149 12.7316 101.553 12.0255 100.9 11.3642C100.005 10.4632 98.9635 9.74438 97.8455 9.51435C97.5201 9.43767 97.1926 9.38336 96.8651 9.361C96.4587 9.32266 95.9614 9.44726 95.5773 9.53033C95.0679 9.64215 94.5726 9.81467 94.0894 10.0639C93.0241 10.6198 91.9789 11.2364 90.9661 11.9552C89.2397 13.1757 87.586 14.5719 85.9748 16.0511C85.2208 16.7412 84.4728 17.4536 83.7046 18.115C82.7039 18.9808 81.7052 19.837 80.6257 20.508C80.0516 20.7859 79.4714 20.9968 78.873 21.1469C78.5233 21.1789 78.1776 21.1821 77.8258 21.1533C77.5468 21.0767 77.2759 20.9808 77.0051 20.8626C76.817 20.7316 76.6351 20.5942 76.4572 20.4377C75.9842 19.869 75.5738 19.2332 75.1775 18.5687C74.0637 16.5719 73.0104 14.4568 71.5852 12.8243C69.8547 10.8402 67.6027 9.46962 65.2779 9.82426C64.352 9.96483 63.4807 10.246 62.6215 10.7252C62.0352 11.0511 61.453 11.3802 60.8749 11.738C59.5244 12.5751 58.2428 13.6102 56.9813 14.6613C55.4793 15.9137 53.9914 17.2396 52.3862 18.246C51.9698 18.4568 51.5513 18.6326 51.1147 18.7604C50.8984 18.7763 50.6861 18.7795 50.4657 18.7667C50.0776 18.6613 49.6996 18.5207 49.3215 18.345C48.8202 18.0255 48.3451 17.6581 47.8781 17.2524C47.7305 17.1246 47.589 16.9872 47.4475 16.8466C46.1881 15.4441 45.0337 13.8945 43.8713 12.3514C43.279 11.5687 42.6746 10.8083 42.0519 10.0639C41.7123 9.65493 41.3282 9.26196 40.9582 8.91052C40.5074 8.4824 40.0526 8.1118 39.5472 7.80828C39.0337 7.50157 38.5485 7.26196 38.0027 7.09263C37.6469 7.01914 37.2911 6.95205 36.9353 6.89454C36.5532 6.8562 36.1873 6.84662 35.8052 6.87537C32.8052 7.10221 30.2156 9.37697 27.9918 11.8913C26.603 13.46 25.4264 15.329 24.0598 16.9265C23.8476 17.1246 23.6292 17.3035 23.3988 17.4696C23.1784 17.5655 22.9581 17.6453 22.7317 17.7092C22.3233 17.738 21.921 17.7252 21.5147 17.6773C20.8536 17.5239 20.2148 17.2907 19.576 17.0064C19.3637 16.9137 19.1555 16.7987 18.9493 16.6837C18.2963 16.2652 17.6595 15.8338 17.0247 15.361C16.4526 14.9361 15.8987 14.4728 15.3408 14.0191C14.6797 13.4824 14.0146 12.9616 13.3414 12.4473C12.6985 11.9552 12.0072 11.5814 11.3259 11.1981C11.1561 11.099 10.9842 11.0032 10.8124 10.9105C9.87844 10.3834 8.89798 10.1533 7.89932 9.97761C7.23421 9.8594 6.58327 10.0096 5.92423 10.131C5.68366 10.1949 5.44916 10.2939 5.22476 10.4185C4.82853 10.6134 4.47678 10.8594 4.12098 11.1565C3.59335 11.5974 3.13243 12.1949 2.72002 12.8147C2.39859 13.2971 2.10748 13.8338 1.84872 14.3834C1.54346 15.0287 1.28672 15.6933 1.06435 16.3961C0.732808 17.4505 0.419463 18.5431 0.267845 19.6741C0.136442 20.6485 0.0252549 21.6038 -0.00304728 22.5974C-0.0273063 23.4441 0.112183 24.3195 0.154636 25.1661C0.18496 25.7636 0.753024 25.837 0.910708 25.3003C0.936988 25.2108 0.963269 25.1246 0.989549 25.0351C1.17351 24.5239 1.35748 24.0319 1.57985 23.5431C1.9033 22.8338 2.27325 22.1597 2.63714 21.4856C2.98485 20.8338 3.34671 20.1981 3.7106 19.5687C3.70049 19.5846 3.69038 19.6038 3.6823 19.6198C4.39389 18.4345 5.11155 17.262 5.97477 16.262C6.17288 16.083 6.37302 15.9201 6.58529 15.7731C6.67019 15.738 6.7551 15.706 6.84203 15.6773C7.12909 15.6517 7.41009 15.6517 7.69918 15.6773C8.55431 15.8945 9.3589 16.2779 10.1615 16.7156C10.8347 17.1629 11.4896 17.6294 12.1446 18.1246C12.7167 18.5527 13.2707 19.0223 13.8327 19.4792C15.3044 20.6677 16.8104 21.7827 18.4237 22.6006C19.2363 23.0128 20.0551 23.3418 20.9102 23.5559C22.0362 23.8402 23.1784 23.9361 24.3105 23.6453C25.3698 23.3738 26.326 22.7699 27.1913 21.9233C27.7512 21.3738 28.2688 20.7636 28.7782 20.131C29.3139 19.4632 29.8395 18.7795 30.3732 18.1054C30.8746 17.4664 31.4042 16.8722 31.9359 16.2811C32.1623 16.0511 32.3928 15.8243 32.6273 15.607C33.2823 15.0096 33.9535 14.4792 34.6691 14.0351C35.0754 13.837 35.4838 13.6773 35.9083 13.5623C36.2399 13.5303 36.5674 13.5303 36.8989 13.5623C37.0889 13.6198 37.2729 13.6869 37.4569 13.7699C37.841 14.0287 38.2028 14.3259 38.5566 14.6613C40.0303 16.2683 41.3363 18.1469 42.7211 19.8882C43.5277 20.9009 44.3949 21.8019 45.2784 22.6869C46.0567 23.4696 46.9603 24.0543 47.864 24.5303C48.4442 24.8338 49.0203 25.0639 49.6349 25.2044C50.114 25.3131 50.5789 25.3674 51.0621 25.3802C51.525 25.3898 51.992 25.2492 52.4489 25.1597C53.019 25.0511 53.5689 24.7763 54.1026 24.5048C54.6807 24.2108 55.265 23.8786 55.8088 23.4888C56.2475 23.1693 56.6902 22.8626 57.1208 22.5271C57.9941 21.8402 58.8593 21.1406 59.7266 20.4345C61.2165 19.2204 62.7307 18.0926 64.3216 17.1437C64.7886 16.9105 65.2556 16.7156 65.7428 16.5687C65.949 16.5527 66.1532 16.5495 66.3614 16.5623C66.6081 16.6358 66.8486 16.722 67.0892 16.8306C67.4814 17.0926 67.8534 17.3929 68.2112 17.7284C68.7833 18.3993 69.2806 19.1342 69.7617 19.9169C70.1762 20.6613 70.5825 21.4153 71.003 22.1469C71.6014 23.1853 72.1816 24.23 72.8932 25.1406C73.8291 26.3418 75.0077 27.1342 76.2429 27.6134C76.7584 27.8147 77.3042 27.869 77.8339 27.9616C78.3939 28.0607 78.9599 28.0032 79.5159 27.9137C80.2072 27.7987 80.8804 27.6485 81.5536 27.4057C82.2329 27.1629 82.8818 26.7572 83.5267 26.3802C84.5415 25.7891 85.4815 24.9552 86.4155 24.1693C87.96 22.8722 89.4398 21.4409 90.9863 20.1501C92.4156 18.9584 93.8933 17.8913 95.4176 16.9393C95.8421 16.7188 96.2667 16.5207 96.7135 16.3802C96.8125 16.3738 96.9095 16.3738 97.0086 16.3802C97.1137 16.4153 97.2168 16.4568 97.3199 16.5016C97.5787 16.6805 97.8253 16.8818 98.0659 17.1022C98.8058 17.9425 99.4648 18.8913 100.134 19.8306C100.862 20.8466 101.636 21.7859 102.471 22.6421C102.831 23.0064 103.189 23.361 103.561 23.6965C103.931 24.0287 104.319 24.3067 104.719 24.5687C105.469 25.0575 106.257 25.4473 107.082 25.6262C107.406 25.7092 107.733 25.7572 108.061 25.7763C108.479 25.8115 108.93 25.7029 109.334 25.6198C110.056 25.476 110.721 25.2044 111.394 24.837C112.387 24.2875 113.329 23.6517 114.243 22.9009C117.584 20.1565 120.7 16.8882 124.231 14.5719C124.87 14.2428 125.509 13.9648 126.186 13.7827C126.516 13.754 126.839 13.754 127.169 13.7827C127.627 13.9105 128.068 14.083 128.507 14.2971C129.419 14.8945 130.256 15.639 131.076 16.4345C132.101 17.5271 133.098 18.6933 134.179 19.6773C134.624 20.0862 135.073 20.4664 135.55 20.8115C136.053 21.1693 136.599 21.4409 137.143 21.6677C137.505 21.7827 137.871 21.8626 138.243 21.9041C138.467 21.9552 138.694 21.9776 138.922 21.9776C139.359 22 139.828 21.885 140.25 21.8019C140.746 21.706 141.213 21.5559 141.692 21.361C142.298 21.115 142.876 20.7476 143.456 20.4153C143.798 20.2236 144.136 20.0032 144.463 19.7731C145.767 18.8562 147.063 17.9201 148.361 16.9904C149.493 16.1821 150.643 15.4409 151.812 14.738C153.289 13.9648 154.781 13.2588 156.348 12.8818C156.934 12.8179 157.51 12.8083 158.097 12.869C158.6 13 159.087 13.1789 159.57 13.4089C160.173 13.8019 160.727 14.2588 161.277 14.7699C161.703 15.2332 162.12 15.7092 162.536 16.1917C163.219 16.9872 163.931 17.7316 164.663 18.4536C164.946 18.7348 165.253 18.9808 165.556 19.2236C166.06 19.6262 166.634 19.8977 167.182 20.1597C167.441 20.262 167.701 20.3386 167.97 20.3929C168.356 20.4632 168.742 20.5335 169.131 20.6038C170.16 20.7156 171.134 20.5527 172.153 20.3642C172.955 20.2172 173.756 19.9073 174.518 19.5463C176.087 18.7955 177.615 17.9425 179.143 17.0511C180.451 16.2875 181.737 15.4473 183.037 14.6581C184.903 13.6134 186.813 12.5687 188.807 12.0767C189.179 12.0351 189.544 12.0223 189.918 12.0447C190.149 12.1118 190.373 12.1917 190.598 12.2907C191.073 12.6134 191.511 12.9968 191.946 13.4185C192.51 14.0287 193.068 14.6517 193.634 15.2652C194.275 15.9552 194.948 16.6677 195.678 17.1853C196.404 17.7029 197.241 18 198.063 18.0575C198.842 18.1086 199.612 17.9521 200.374 17.7444C201.15 17.5335 201.884 17.1086 202.612 16.706C203.192 16.3834 203.766 16.0479 204.338 15.6965C205.052 15.2588 205.762 14.8115 206.477 14.3802C208.315 13.4153 210.183 12.5942 212.093 11.9105C213.112 11.5463 214.135 11.2013 215.146 10.8019C216.062 10.4409 216.965 9.95205 217.812 9.37378C218.593 8.84343 219.268 8.05429 219.925 7.2939C220.467 6.66451 220.877 5.86579 221.348 5.14694C221.627 4.77314 221.821 4.33224 221.926 3.82106C222.088 3.0447 222.003 2.20125 221.7 1.50796C221.407 0.83384 220.917 0.335438 220.355 0.12777C220.161 0.0574826 219.973 0.0223389 219.787 0.0223389C219.385 0.0223389 219.001 0.175693 218.621 0.42809L218.613 0.405725ZM130.646 15.9616C130.686 16.0032 130.727 16.0447 130.767 16.0894C130.727 16.0479 130.686 16.0064 130.646 15.9616Z" fill="#5AC566"/>
</g>
<defs>
<clipPath id="clip0_4154_3250">
<rect width="222" height="28" fill="white"/>
</clipPath>
</defs>
</svg>
