<svg width="80" height="80" viewBox="0 0 80 80" fill="none" xmlns="http://www.w3.org/2000/svg">
<path d="M26.4251 0.122193C24.6875 0.707331 23.0058 1.4095 21.3855 2.21755C13.5914 4.84231 6.81422 10.5321 4.60729 18.7017C4.38939 19.5098 4.66316 20.2175 5.16042 20.7079C5.02074 20.9643 4.88106 21.2206 4.74697 21.477C4.73021 21.4045 4.71345 21.3376 4.6911 21.2652C3.97594 18.607 0.204611 19.7717 0.640409 22.3797C1.32763 26.5203 2.02044 30.6553 2.71324 34.7902C2.59591 37.4819 2.6909 40.1735 2.99819 42.8596C2.24392 43.233 1.72432 44.0243 2.0372 45.0943C3.09317 48.711 4.23295 52.4503 5.65768 56.0558C5.79735 56.4794 5.93703 56.8973 6.07671 57.3209C5.93145 57.9116 6.05436 58.5636 6.61308 59.1041C6.63543 59.1264 6.66336 59.1487 6.68571 59.171C6.74717 59.3605 6.81422 59.5555 6.87568 59.745C7.07681 60.3524 7.4288 60.7481 7.84784 60.971C10.7811 66.7778 14.7983 71.8657 20.8771 75.0032C22.8494 76.3295 24.9278 77.4998 27.1068 78.5084C28.0454 78.9431 29.1349 78.6199 29.7271 77.9344C32.733 78.8094 35.8507 79.0769 38.918 78.7648C39.0354 78.7648 39.1583 78.7759 39.2756 78.7759C39.5997 78.9041 39.9796 78.9264 40.3986 78.7926C42.41 78.7982 44.4214 78.6756 46.4216 78.4026C46.9971 78.3245 48.0419 78.1685 49.299 77.9233C49.2487 77.9679 49.1984 78.018 49.1481 78.0626C48.3883 78.7815 49.1705 80.3642 50.2376 79.9239C57.2551 77.0261 63.3171 72.5456 68.0439 66.605C68.4517 66.0924 67.7589 65.3568 67.3064 65.8695C65.1162 68.3382 62.6802 70.5227 60.0263 72.4063C60.0598 72.1722 60.0598 71.927 60.0207 71.6763C65.4067 67.023 70.7648 62.3419 76.1005 57.6274C77.1118 56.7357 76.4246 55.1921 75.3798 54.802C75.5642 54.5902 75.7039 54.3227 75.7653 53.9884C75.905 53.2416 76.0279 52.4893 76.1508 51.737C77.285 52.1828 78.76 51.6144 78.8606 49.9704C79.1455 45.1277 79.2796 40.2794 79.2685 35.4311C79.3858 35.1079 79.4305 34.7401 79.3635 34.3277C79.3243 34.0992 79.2964 33.8707 79.2629 33.6478C79.2517 32.6224 79.2349 31.5971 79.2126 30.5717C79.2573 30.3488 79.2461 30.137 79.1958 29.9364C79.1567 28.3426 79.1064 26.7488 79.0338 25.155C78.9668 23.628 77.6594 23.0262 76.5587 23.3104C74.5808 20.0726 72.3963 16.9742 69.9938 14.0541C67.9768 10.9445 65.742 7.96305 63.2892 5.13766C62.5573 4.29061 61.6745 4.32404 61.0096 4.78658C59.3838 3.53829 56.7075 5.33271 57.987 7.2776C58.3613 7.84602 58.7245 8.41444 59.0932 8.98843C57.6015 7.28317 56.0985 5.58906 54.5788 3.91723C53.7966 3.05903 52.8412 3.14262 52.1596 3.66646C49.299 2.00021 45.9914 1.28132 42.6223 0.863368C37.9403 0.283802 33.1688 0.0943289 28.4812 0.657176C27.9951 0.11662 27.2632 -0.173163 26.414 0.111047L26.4251 0.122193ZM10.485 56.6187C10.7476 56.3735 10.9599 56.0391 11.094 55.6045C11.1331 55.4819 11.1666 55.3537 11.2001 55.2311C11.2337 55.2645 11.2672 55.298 11.2951 55.337L11.351 57.3264C11.0716 57.1537 10.7923 56.9809 10.5129 56.8137C10.5017 56.7469 10.4906 56.6856 10.4794 56.6187H10.485ZM40.8456 39.8559C40.5998 39.6998 40.3651 39.5382 40.1193 39.3822C40.2589 38.8528 40.3986 38.3178 40.5271 37.7828C40.7562 38.2955 40.9741 38.8138 41.1864 39.3376C41.0691 39.5104 40.9573 39.6831 40.84 39.8559H40.8456ZM31.3809 39.0255C31.4145 39.0255 31.448 39.0144 31.4815 39.0144C31.2692 40.1011 31.0513 41.1822 30.8222 42.2633C30.7161 42.2299 30.6043 42.1964 30.4982 42.163C30.744 41.2602 30.9898 40.363 31.2524 39.4769C31.2971 39.3265 31.3418 39.176 31.3865 39.0255H31.3809ZM38.5828 17.8547C38.918 17.8101 39.2533 17.7599 39.5885 17.7098C39.5214 17.8881 39.4544 18.072 39.3818 18.2503C39.1247 18.0553 38.8566 17.9327 38.5828 17.8547ZM20.7151 51.5642C20.9832 51.7815 21.2514 51.9989 21.5196 52.2162C21.4917 52.3611 21.4582 52.5004 21.4302 52.6453C21.1676 52.4001 20.8994 52.1661 20.6313 51.9264C20.6592 51.8038 20.6871 51.6868 20.7095 51.5642H20.7151ZM33.342 62.6317C33.5655 62.6261 33.7834 62.6094 34.0069 62.6038C34.2751 62.8323 34.5377 63.0608 34.8059 63.2893C34.75 63.3116 34.6885 63.3394 34.6327 63.3617C34.2025 63.1221 33.7723 62.8769 33.3476 62.6317H33.342ZM46.6395 25.1382C46.7065 25.1271 46.7736 25.1215 46.8462 25.116C46.9691 25.3389 47.0976 25.5618 47.2205 25.7903C47.0306 25.5729 46.835 25.3612 46.6451 25.1438L46.6395 25.1382ZM43.6783 20.5519C43.7118 20.2788 43.7453 20.0113 43.7788 19.7383C43.9409 20.0113 44.0973 20.2788 44.2593 20.5519C44.0694 20.5519 43.8738 20.5519 43.6839 20.5519H43.6783ZM33.0403 19.2311C32.8392 19.0138 32.6269 18.802 32.4202 18.5903C32.6995 18.5624 32.9733 18.529 33.2526 18.5011C33.18 18.7463 33.1074 18.9859 33.0403 19.2311ZM52.6121 49.4967C52.5172 49.4856 52.4222 49.4744 52.3272 49.4633C52.6289 48.984 52.925 48.5048 53.2211 48.0255C53.3888 48.2596 53.5564 48.4992 53.7296 48.7388C53.9195 48.9952 54.1319 49.1958 54.3665 49.3407C54.3386 49.3797 54.3162 49.4187 54.2883 49.4633C53.7296 49.48 53.1709 49.4911 52.6121 49.5023V49.4967ZM58.6239 40.2905C58.92 39.9172 59.2218 39.5494 59.5235 39.1816C59.7022 39.3933 59.8755 39.5995 60.0542 39.8113C59.7525 40.3686 59.4397 40.9203 59.1324 41.4775C58.9703 41.0819 58.7915 40.6862 58.6295 40.2961L58.6239 40.2905ZM16.547 26.342C16.4912 26.7878 16.4353 27.2392 16.385 27.6906C15.8486 27.646 15.3179 27.5958 14.7815 27.5457C14.7647 27.0218 14.7536 26.498 14.7368 25.9686C15.3402 26.0968 15.9436 26.2194 16.547 26.342ZM15.7425 34.5228C15.6754 35.3364 15.6084 36.15 15.5414 36.9636C15.3737 36.9859 15.2061 37.0082 15.0385 37.0305L14.9547 33.9878C15.2173 34.1661 15.4799 34.3444 15.7425 34.5228ZM38.1135 69.9153C37.9738 69.7815 37.8397 69.6478 37.7 69.5085C37.7782 69.4973 37.8509 69.4806 37.9291 69.4694C38.1135 69.5586 38.3034 69.6366 38.4878 69.7202C38.3649 69.7815 38.2364 69.8484 38.1135 69.9097V69.9153ZM59.0988 49.2738C59.1994 49.1233 59.3056 48.9785 59.4061 48.828C60.5459 48.6775 61.5684 47.7246 61.099 46.4206C61.803 45.4398 62.5182 44.4645 63.2445 43.5005C63.4512 43.7345 63.6524 43.9741 63.8591 44.2026C62.9651 45.8577 62.0544 47.5073 61.1326 49.1456C60.4565 49.1902 59.7749 49.2348 59.0988 49.2682V49.2738ZM17.9438 62.0744C17.955 62.041 17.9662 62.0075 17.9774 61.9741C19.5082 63.345 21.0782 64.6713 22.6985 65.9363C22.2739 65.7078 21.8493 65.4849 21.4302 65.2453C20.3128 64.1419 19.1507 63.0831 17.9438 62.0744ZM51.1036 15.4027C51.2545 15.3637 51.4109 15.3191 51.5618 15.2801C51.8579 15.8095 52.1596 16.3389 52.4669 16.8627C52.0143 16.3779 51.5562 15.8931 51.1036 15.4027ZM22.028 8.85468C20.1117 9.94137 18.3014 11.2064 16.6253 12.6219C18.1953 11.0336 19.8714 9.54571 21.6649 8.19153C21.7487 8.43116 21.8716 8.65964 22.0336 8.86026L22.028 8.85468ZM72.6756 55.0305C72.4912 55.0806 72.3013 55.1475 72.1113 55.2645C71.3794 55.7103 70.6475 56.1562 69.9156 56.5964C69.9714 56.4794 70.0329 56.3623 70.0888 56.2397C70.8319 55.7326 71.575 55.2199 72.3125 54.7017C72.4186 54.8243 72.5415 54.9357 72.6756 55.0249V55.0305ZM68.2003 31.1401C68.0048 30.672 67.8092 30.2094 67.6081 29.7469C67.5634 29.4181 67.5019 29.0893 67.4181 28.7605C67.3064 28.3259 67.0438 27.9803 66.7141 27.7351C66.4459 27.15 66.1666 26.5649 65.8872 25.9797C66.1107 25.4225 66.0046 24.8596 65.7029 24.3859C65.5743 23.628 64.9989 23.0708 64.3005 22.8646C63.3674 21.1147 62.3729 19.3983 61.3281 17.7154C64.3731 21.3655 67.3455 25.0769 70.2285 28.8497C69.5468 29.6076 68.8708 30.3711 68.2003 31.1401Z" fill="#0A3026"/>
</svg>
