<svg width="144" height="28" viewBox="0 0 144 28" fill="none" xmlns="http://www.w3.org/2000/svg">
<g clip-path="url(#clip0_4154_3390)">
<path d="M141.803 0.405748C141.464 0.753991 141.121 1.07987 140.773 1.38658C140.616 1.5623 140.46 1.73482 140.303 1.90735C140.144 2.08306 139.98 2.23642 139.816 2.38977C138.883 3.1214 137.904 3.60064 136.938 4.11821C136.124 4.55591 135.318 5.04153 134.517 5.56869C133.555 6.20128 132.621 7.02236 131.698 7.85623C131.034 8.45687 130.389 9.13418 129.731 9.7508C129.403 10.0064 129.073 10.2268 128.73 10.3738C128.686 10.3738 128.643 10.3738 128.598 10.3738C128.408 10.1502 128.23 9.89457 128.053 9.62939C127.765 9.14057 127.483 8.64217 127.194 8.15974C126.9 7.67092 126.601 7.19169 126.298 6.72204C126.142 6.47923 125.981 6.25239 125.817 6.03195C125.437 5.52715 125.004 5.19489 124.585 4.85623C124.218 4.5591 123.817 4.47284 123.429 4.3706C123.092 4.28434 122.769 4.27156 122.431 4.30671C121.85 4.3738 121.273 4.61022 120.712 4.90415C120.212 5.16294 119.726 5.51118 119.239 5.86262C117.259 7.29712 115.385 9.26517 113.474 11.0383C112.558 11.8115 111.635 12.5431 110.66 12.9201C110.333 12.9808 110.01 12.9904 109.681 12.9457C109.534 12.8818 109.392 12.8083 109.25 12.7157C108.977 12.4153 108.723 12.0703 108.471 11.7029C108.071 11.0288 107.684 10.3291 107.292 9.63898C106.631 8.47604 105.926 7.43131 105.135 6.6837C104.692 6.26198 104.238 5.91693 103.769 5.65495C103.286 5.38977 102.775 5.29712 102.279 5.21725C101.554 5.10223 100.814 5.35144 100.104 5.63898C99.541 5.86581 98.9877 6.20767 98.4487 6.60703C97.7551 7.1214 97.0745 7.69968 96.4018 8.32588C95.8248 8.86262 95.2662 9.46645 94.7076 10.0863C93.5327 11.3834 92.4037 12.8914 91.1933 14.0511C90.8878 14.2907 90.5823 14.4888 90.2636 14.6326C90.1508 14.6422 90.0407 14.6454 89.9279 14.6358C89.8388 14.5911 89.7522 14.5399 89.6644 14.4824C89.2736 14.0703 88.9143 13.5687 88.5589 13.0351C88.1249 12.3195 87.6974 11.5911 87.2594 10.885C86.7087 9.99361 86.1409 9.09265 85.5259 8.39616C84.8676 7.65495 84.1766 7.04153 83.4449 6.6837C82.999 6.46965 82.5243 6.38019 82.0667 6.36421C81.7599 6.35144 81.4373 6.46965 81.1383 6.5591C80.9049 6.62939 80.6794 6.71885 80.4499 6.83067C80.0893 7.00639 79.7444 7.29712 79.4022 7.58786C79.0061 7.92652 78.6141 8.27156 78.2377 8.69329C77.0261 10.0479 75.8997 11.6901 74.772 13.3163C74.2317 14.0926 73.6915 14.8626 73.1486 15.6294C72.4418 16.623 71.7232 17.5751 70.9482 18.3259C70.7083 18.508 70.467 18.6549 70.2178 18.77C70.1287 18.7764 70.0408 18.7796 69.9516 18.77C69.7812 18.6837 69.616 18.5815 69.452 18.4633C69.0757 18.0735 68.7308 17.6134 68.3925 17.1086C67.9821 16.377 67.5926 15.6134 67.2202 14.7987C67.0248 14.3706 66.8281 13.9361 66.6288 13.5112C66.259 12.7316 65.8722 12.0256 65.4486 11.3642C64.8677 10.4633 64.1924 9.74441 63.4673 9.51437C63.2562 9.4377 63.0437 9.38338 62.8313 9.36102C62.5677 9.32268 62.2451 9.44728 61.996 9.53035C61.6656 9.64217 61.3443 9.81469 61.0309 10.0639C60.3398 10.6198 59.6619 11.2364 59.0049 11.9553C57.8851 13.1757 56.8124 14.5719 55.7673 16.0511C55.2782 16.7412 54.7931 17.4537 54.2948 18.115C53.6457 18.9808 52.9979 19.8371 52.2977 20.508C51.9252 20.7859 51.5489 20.9968 51.1608 21.147C50.9339 21.1789 50.7097 21.1821 50.4815 21.1534C50.3006 21.0767 50.1248 20.9808 49.9491 20.8626C49.8272 20.7316 49.7092 20.5942 49.5938 20.4377C49.2869 19.869 49.0207 19.2332 48.7637 18.5687C48.0412 16.5719 47.358 14.4569 46.4335 12.8243C45.3111 10.8403 43.8503 9.46965 42.3423 9.82428C41.7417 9.96485 41.1765 10.246 40.6192 10.7252C40.239 11.0511 39.8613 11.3802 39.4863 11.738C38.6103 12.5751 37.779 13.6102 36.9607 14.6613C35.9864 15.9137 35.0213 17.2396 33.9802 18.246C33.71 18.4569 33.4386 18.6326 33.1554 18.7604C33.015 18.7764 32.8774 18.7796 32.7344 18.7668C32.4827 18.6613 32.2374 18.5208 31.9922 18.345C31.667 18.0256 31.3589 17.6581 31.056 17.2524C30.9602 17.1246 30.8685 16.9872 30.7767 16.8466C29.9597 15.4441 29.211 13.8946 28.457 12.3514C28.0728 11.5687 27.6807 10.8083 27.2768 10.0639C27.0565 9.65495 26.8074 9.26198 26.5674 8.91054C26.275 8.48243 25.9799 8.11182 25.6521 7.8083C25.319 7.5016 25.0043 7.26198 24.6503 7.09265C24.4195 7.01917 24.1887 6.95207 23.9579 6.89457C23.7101 6.85623 23.4727 6.84664 23.2249 6.8754C21.2789 7.10223 19.5992 9.377 18.1567 11.8914C17.2559 13.4601 16.4927 15.3291 15.6063 16.9265C15.4686 17.1246 15.327 17.3035 15.1775 17.4696C15.0346 17.5655 14.8916 17.6454 14.7448 17.7093C14.4799 17.738 14.2189 17.7252 13.9554 17.6773C13.5266 17.524 13.1122 17.2907 12.6978 17.0064C12.5601 16.9137 12.4251 16.7987 12.2913 16.6837C11.8678 16.2652 11.4547 15.8339 11.043 15.361C10.6719 14.9361 10.3126 14.4728 9.95066 14.0192C9.52186 13.4824 9.09045 12.9617 8.65378 12.4473C8.23679 11.9553 7.78833 11.5815 7.34642 11.1981C7.23627 11.099 7.12481 11.0032 7.01335 10.9105C6.40753 10.3834 5.77156 10.1534 5.12378 9.97763C4.69236 9.85942 4.27012 10.0096 3.84264 10.131C3.68659 10.1949 3.53448 10.2939 3.38893 10.4185C3.13192 10.6134 2.90375 10.8594 2.67296 11.1565C2.33071 11.5974 2.03174 12.1949 1.76423 12.8147C1.55574 13.2971 1.36691 13.8339 1.19907 14.3834C1.00106 15.0288 0.834525 15.6933 0.690282 16.3962C0.47523 17.4505 0.271979 18.5431 0.173632 19.6741C0.0883973 20.6486 0.016276 21.6038 -0.00208219 22.5974C-0.0178177 23.4441 0.0726617 24.3195 0.100199 25.1661C0.119868 25.7636 0.488343 25.8371 0.590624 25.3003C0.607671 25.2109 0.624717 25.1246 0.641764 25.0351C0.761092 24.524 0.88042 24.0319 1.02466 23.5431C1.23447 22.8339 1.47444 22.1597 1.71047 21.4856C1.93601 20.8339 2.17074 20.1981 2.40677 19.5687C2.40021 19.5847 2.39366 19.6038 2.38841 19.6198C2.84999 18.4345 3.3155 17.262 3.87542 16.262C4.00393 16.0831 4.13375 15.9201 4.27143 15.7732C4.32651 15.738 4.38158 15.7061 4.43797 15.6773C4.62417 15.6518 4.80644 15.6518 4.99396 15.6773C5.54864 15.8946 6.07053 16.278 6.59112 16.7157C7.02778 17.1629 7.45264 17.6294 7.8775 18.1246C8.24859 18.5527 8.60789 19.0224 8.97243 19.4792C9.92705 20.6677 10.904 21.7827 11.9504 22.6006C12.4775 23.0128 13.0086 23.3419 13.5633 23.5559C14.2937 23.8403 15.0346 23.9361 15.7689 23.6454C16.456 23.3738 17.0762 22.77 17.6375 21.9233C18.0007 21.3738 18.3364 20.7636 18.6668 20.131C19.0143 19.4633 19.3553 18.7796 19.7015 18.1054C20.0267 17.4665 20.3702 16.8722 20.7151 16.2811C20.862 16.0511 21.0114 15.8243 21.1635 15.607C21.5884 15.0096 22.0238 14.4792 22.488 14.0351C22.7515 13.8371 23.0164 13.6773 23.2918 13.5623C23.5068 13.5303 23.7193 13.5303 23.9343 13.5623C24.0576 13.6198 24.1769 13.6869 24.2962 13.77C24.5454 14.0288 24.7801 14.3259 25.0096 14.6613C25.9655 16.2684 26.8126 18.147 27.7109 19.8882C28.2341 20.901 28.7966 21.8019 29.3696 22.6869C29.8745 23.4696 30.4606 24.0543 31.0468 24.5303C31.4231 24.8339 31.7969 25.0639 32.1955 25.2045C32.5063 25.3131 32.8079 25.3674 33.1213 25.3802C33.4215 25.3898 33.7245 25.2492 34.0208 25.1597C34.3906 25.0511 34.7473 24.7764 35.0934 24.5048C35.4685 24.2109 35.8474 23.8786 36.2002 23.4888C36.4847 23.1693 36.7719 22.8626 37.0512 22.5272C37.6177 21.8403 38.1789 21.1406 38.7415 20.4345C39.7079 19.2204 40.6901 18.0926 41.722 17.1438C42.025 16.9105 42.3279 16.7157 42.6439 16.5687C42.7776 16.5527 42.9101 16.5495 43.0451 16.5623C43.2051 16.6358 43.3612 16.722 43.5172 16.8307C43.7716 17.0926 44.0129 17.393 44.245 17.7284C44.6161 18.3994 44.9387 19.1342 45.2507 19.9169C45.5196 20.6613 45.7831 21.4153 46.0559 22.147C46.444 23.1853 46.8204 24.23 47.2819 25.1406C47.8891 26.3419 48.6536 27.1342 49.4548 27.6134C49.7891 27.8147 50.1432 27.869 50.4868 27.9617C50.85 28.0607 51.2171 28.0032 51.5778 27.9137C52.0262 27.7987 52.4629 27.6486 52.8995 27.4057C53.3401 27.1629 53.7611 26.7572 54.1794 26.3802C54.8376 25.7891 55.4474 24.9553 56.0532 24.1693C57.055 22.8722 58.0149 21.4409 59.018 20.1502C59.9451 18.9585 60.9037 17.8914 61.8924 16.9393C62.1678 16.7188 62.4432 16.5208 62.733 16.3802C62.7972 16.3738 62.8601 16.3738 62.9244 16.3802C62.9926 16.4153 63.0595 16.4569 63.1263 16.5016C63.2942 16.6805 63.4542 16.8818 63.6102 17.1022C64.0901 17.9425 64.5176 18.8914 64.9517 19.8307C65.4237 20.8466 65.926 21.7859 66.4675 22.6422C66.7009 23.0064 66.933 23.361 67.1743 23.6965C67.4143 24.0288 67.6661 24.3067 67.9257 24.5687C68.4122 25.0575 68.9236 25.4473 69.4586 25.6262C69.6684 25.7093 69.8808 25.7572 70.0933 25.7764C70.3647 25.8115 70.6571 25.7029 70.9194 25.6198C71.3875 25.476 71.8189 25.2045 72.2556 24.8371C72.8994 24.2875 73.5105 23.6518 74.1032 22.901C76.2708 20.1565 78.2915 16.8882 80.5823 14.5719C80.9967 14.2428 81.4111 13.9649 81.8503 13.7827C82.0641 13.754 82.2739 13.754 82.4876 13.7827C82.7853 13.9105 83.0712 14.0831 83.3557 14.2971C83.9471 14.8946 84.49 15.639 85.0224 16.4345C85.6872 17.5272 86.3337 18.6933 87.0352 19.6773C87.3237 20.0863 87.6148 20.4665 87.9243 20.8115C88.2508 21.1693 88.6048 21.4409 88.9576 21.6677C89.1923 21.7827 89.4296 21.8626 89.6709 21.9042C89.8165 21.9553 89.9633 21.9776 90.1115 21.9776C90.3948 22 90.699 21.885 90.973 21.8019C91.2943 21.7061 91.5972 21.5559 91.908 21.361C92.3014 21.115 92.6764 20.7476 93.0527 20.4153C93.2744 20.2236 93.4933 20.0032 93.7058 19.7732C94.5516 18.8562 95.3921 17.9201 96.234 16.9904C96.9683 16.1821 97.7144 15.4409 98.4723 14.738C99.4309 13.9649 100.399 13.2588 101.415 12.8818C101.795 12.8179 102.169 12.8083 102.549 12.869C102.876 13 103.192 13.1789 103.505 13.4089C103.896 13.8019 104.255 14.2588 104.612 14.77C104.889 15.2332 105.159 15.7093 105.429 16.1917C105.872 16.9872 106.334 17.7316 106.808 18.4537C106.992 18.7348 107.191 18.9808 107.388 19.2236C107.714 19.6262 108.087 19.8978 108.442 20.1597C108.61 20.262 108.779 20.3387 108.954 20.393C109.204 20.4633 109.454 20.5335 109.706 20.6038C110.374 20.7157 111.006 20.5527 111.667 20.3642C112.187 20.2173 112.706 19.9073 113.201 19.5463C114.218 18.7955 115.21 17.9425 116.201 17.0511C117.049 16.2875 117.883 15.4473 118.727 14.6581C119.937 13.6134 121.176 12.5687 122.469 12.0767C122.71 12.0351 122.948 12.0224 123.19 12.0447C123.34 12.1118 123.485 12.1917 123.631 12.2907C123.939 12.6134 124.224 12.9968 124.505 13.4185C124.871 14.0288 125.233 14.6518 125.6 15.2652C126.016 15.9553 126.453 16.6677 126.926 17.1853C127.397 17.7029 127.94 18 128.473 18.0575C128.978 18.1086 129.478 17.9521 129.972 17.7444C130.476 17.5335 130.952 17.1086 131.424 16.7061C131.8 16.3834 132.173 16.0479 132.544 15.6965C133.007 15.2588 133.467 14.8115 133.931 14.3802C135.123 13.4153 136.335 12.5942 137.574 11.9105C138.235 11.5463 138.898 11.2013 139.554 10.8019C140.148 10.4409 140.734 9.95207 141.284 9.3738C141.79 8.84345 142.228 8.05431 142.654 7.29393C143.005 6.66453 143.271 5.86581 143.577 5.14696C143.758 4.77316 143.884 4.33227 143.952 3.82108C144.057 3.04473 144.002 2.20128 143.805 1.50798C143.615 0.833863 143.298 0.335461 142.933 0.127793C142.807 0.0575055 142.685 0.0223618 142.565 0.0223618C142.304 0.0223618 142.055 0.175716 141.808 0.428113L141.803 0.405748ZM84.7431 15.9617C84.7693 16.0032 84.7955 16.0447 84.8217 16.0895C84.7955 16.0479 84.7693 16.0064 84.7431 15.9617Z" fill="#5AC566"/>
</g>
<defs>
<clipPath id="clip0_4154_3390">
<rect width="144" height="28" fill="white"/>
</clipPath>
</defs>
</svg>
