<svg width="342" height="28" viewBox="0 0 342 28" fill="none" xmlns="http://www.w3.org/2000/svg">
<g clip-path="url(#clip0_4154_3645)">
<path d="M336.783 0.405725C335.98 0.753968 335.164 1.07985 334.338 1.38656C333.965 1.56228 333.594 1.7348 333.22 1.90732C332.844 2.08304 332.454 2.2364 332.065 2.38975C329.848 3.12138 327.524 3.60061 325.229 4.11819C323.295 4.55589 321.383 5.04151 319.48 5.56867C317.194 6.20125 314.977 7.02234 312.784 7.8562C311.208 8.45684 309.676 9.13416 308.113 9.75077C307.334 10.0064 306.549 10.2268 305.736 10.3738C305.631 10.3738 305.528 10.3738 305.422 10.3738C304.97 10.1501 304.547 9.89454 304.126 9.62937C303.444 9.14055 302.775 8.64215 302.086 8.15972C301.389 7.6709 300.679 7.19167 299.959 6.72202C299.589 6.47921 299.206 6.25237 298.816 6.03192C297.913 5.52713 296.885 5.19486 295.892 4.8562C295.02 4.55908 294.067 4.47282 293.145 4.37058C292.345 4.28432 291.579 4.27154 290.775 4.30668C289.396 4.37378 288.025 4.6102 286.692 4.90413C285.506 5.16291 284.35 5.51116 283.195 5.86259C278.492 7.2971 274.042 9.26515 269.501 11.0383C267.327 11.8115 265.135 12.5431 262.818 12.9201C262.042 12.9808 261.276 12.9904 260.495 12.9457C260.146 12.8818 259.806 12.8083 259.47 12.7156C258.822 12.4153 258.218 12.0703 257.62 11.7029C256.67 11.0287 255.751 10.329 254.82 9.63895C253.251 8.47601 251.575 7.43128 249.697 6.68368C248.645 6.26196 247.567 5.91691 246.452 5.65493C245.306 5.38975 244.091 5.2971 242.914 5.21723C241.192 5.10221 239.435 5.35141 237.747 5.63895C236.411 5.86579 235.097 6.20764 233.817 6.607C232.17 7.12138 230.553 7.69966 228.956 8.32585C227.585 8.86259 226.259 9.46643 224.932 10.0862C222.142 11.3834 219.46 12.8913 216.586 14.0511C215.86 14.2907 215.134 14.4888 214.378 14.6326C214.11 14.6421 213.848 14.6453 213.58 14.6358C213.369 14.591 213.163 14.5399 212.954 14.4824C212.026 14.0703 211.173 13.5687 210.329 13.0351C209.298 12.3195 208.283 11.591 207.243 10.885C205.935 9.99358 204.586 9.09263 203.125 8.39614C201.562 7.65493 199.921 7.04151 198.183 6.68368C197.124 6.46962 195.997 6.38017 194.91 6.36419C194.181 6.35141 193.415 6.46962 192.705 6.55908C192.151 6.62937 191.615 6.71882 191.07 6.83065C190.214 7.00636 189.394 7.2971 188.582 7.58783C187.641 7.92649 186.71 8.27154 185.816 8.69326C182.938 10.0479 180.263 11.6901 177.585 13.3163C176.302 14.0926 175.019 14.8626 173.729 15.6294C172.051 16.623 170.344 17.5751 168.504 18.3259C167.934 18.508 167.361 18.6549 166.769 18.7699C166.557 18.7763 166.348 18.7795 166.137 18.7699C165.732 18.6837 165.339 18.5814 164.95 18.4632C164.056 18.0735 163.237 17.6134 162.434 17.1086C161.459 16.377 160.534 15.6134 159.649 14.7987C159.185 14.3706 158.718 13.9361 158.245 13.5112C157.367 12.7316 156.448 12.0255 155.442 11.3642C154.062 10.4632 152.458 9.74438 150.736 9.51435C150.235 9.43767 149.73 9.38336 149.226 9.361C148.6 9.32266 147.834 9.44726 147.242 9.53033C146.457 9.64215 145.694 9.81467 144.95 10.0639C143.309 10.6198 141.698 11.2364 140.138 11.9552C137.479 13.1757 134.931 14.5719 132.449 16.0511C131.287 16.7412 130.135 17.4536 128.952 18.115C127.41 18.9808 125.871 19.837 124.208 20.508C123.324 20.7859 122.43 20.9968 121.508 21.1469C120.969 21.1789 120.437 21.1821 119.895 21.1533C119.465 21.0767 119.048 20.9808 118.631 20.8626C118.341 20.7316 118.061 20.5942 117.787 20.4377C117.058 19.869 116.426 19.2332 115.815 18.5687C114.099 16.5719 112.477 14.4568 110.281 12.8243C107.615 10.8402 104.146 9.46962 100.564 9.82426C99.1381 9.96483 97.7958 10.246 96.4722 10.7252C95.569 11.0511 94.6721 11.3802 93.7814 11.738C91.701 12.5751 89.7266 13.6102 87.7832 14.6613C85.4693 15.9137 83.1771 17.2396 80.7043 18.246C80.0628 18.4568 79.4181 18.6326 78.7454 18.7604C78.4122 18.7763 78.0852 18.7795 77.7457 18.7667C77.1478 18.6613 76.5654 18.5207 75.983 18.345C75.2107 18.0255 74.4788 17.6581 73.7594 17.2524C73.5321 17.1246 73.314 16.9872 73.096 16.8466C71.1558 15.4441 69.3775 13.8945 67.5868 12.3514C66.6743 11.5687 65.7431 10.8083 64.7839 10.0639C64.2607 9.65493 63.669 9.26196 63.099 8.91052C62.4046 8.4824 61.7038 8.1118 60.9252 7.80828C60.1342 7.50157 59.3868 7.26196 58.5459 7.09263C57.9978 7.01914 57.4497 6.95205 56.9015 6.89454C56.3129 6.8562 55.7492 6.84662 55.1606 6.87537C50.539 7.10221 46.5495 9.37697 43.1237 11.8913C40.9842 13.46 39.1717 15.329 37.0664 16.9265C36.7394 17.1246 36.403 17.3035 36.048 17.4696C35.7085 17.5655 35.3691 17.6453 35.0203 17.7092C34.3912 17.738 33.7714 17.7252 33.1454 17.6773C32.127 17.5239 31.1429 17.2907 30.1588 17.0064C29.8318 16.9137 29.511 16.7987 29.1933 16.6837C28.1874 16.2652 27.2064 15.8338 26.2285 15.361C25.3472 14.9361 24.4938 14.4728 23.6343 14.0191C22.6159 13.4824 21.5913 12.9616 20.5542 12.4473C19.5638 11.9552 18.4987 11.5814 17.4492 11.1981C17.1876 11.099 16.9229 11.0032 16.6582 10.9105C15.2194 10.3834 13.7089 10.1533 12.1704 9.97761C11.1458 9.8594 10.143 10.0096 9.12773 10.131C8.75713 10.1949 8.39586 10.2939 8.05017 10.4185C7.43977 10.6134 6.89787 10.8594 6.34975 11.1565C5.53691 11.5974 4.82684 12.1949 4.19152 12.8147C3.69634 13.2971 3.24788 13.8338 2.84924 14.3834C2.37898 15.0287 1.98346 15.6933 1.64089 16.3961C1.13014 17.4505 0.647414 18.5431 0.41384 19.6741C0.211408 20.6485 0.0401203 21.6038 -0.00348035 22.5974C-0.0408523 23.4441 0.174036 24.3195 0.239437 25.1661C0.286152 25.7636 1.16128 25.837 1.4042 25.3003C1.44468 25.2108 1.48517 25.1246 1.52566 25.0351C1.80906 24.5239 2.09246 24.0319 2.43504 23.5431C2.93333 22.8338 3.50325 22.1597 4.06383 21.4856C4.5995 20.8338 5.15696 20.1981 5.71754 19.5687C5.70197 19.5846 5.6864 19.6038 5.67394 19.6198C6.77018 18.4345 7.87577 17.262 9.20559 16.262C9.51079 16.083 9.81911 15.9201 10.1461 15.7731C10.2769 15.738 10.4077 15.706 10.5416 15.6773C10.9839 15.6517 11.4168 15.6517 11.8621 15.6773C13.1795 15.8945 14.419 16.2779 15.6554 16.7156C16.6924 17.1629 17.7015 17.6294 18.7105 18.1246C19.5919 18.5527 20.4452 19.0223 21.311 19.4792C23.5782 20.6677 25.8984 21.7827 28.3836 22.6006C29.6356 23.0128 30.8969 23.3418 32.2143 23.5559C33.9489 23.8402 35.7085 23.9361 37.4526 23.6453C39.0845 23.3738 40.5575 22.7699 41.8905 21.9233C42.7531 21.3738 43.5504 20.7636 44.3352 20.131C45.1605 19.4632 45.9702 18.7795 46.7924 18.1054C47.5648 17.4664 48.3807 16.8722 49.1998 16.2811C49.5486 16.0511 49.9036 15.8243 50.2649 15.607C51.2739 15.0096 52.3079 14.4792 53.4104 14.0351C54.0364 13.837 54.6654 13.6773 55.3195 13.5623C55.8302 13.5303 56.3347 13.5303 56.8455 13.5623C57.1382 13.6198 57.4216 13.6869 57.705 13.7699C58.2967 14.0287 58.8542 14.3259 59.3992 14.6613C61.6696 16.2683 63.6814 18.1469 65.8147 19.8882C67.0574 20.9009 68.3934 21.8019 69.7544 22.6869C70.9534 23.4696 72.3455 24.0543 73.7376 24.5303C74.6314 24.8338 75.519 25.0639 76.4657 25.2044C77.2038 25.3131 77.9201 25.3674 78.6645 25.3802C79.3776 25.3898 80.0971 25.2492 80.8009 25.1597C81.6791 25.0511 82.5262 24.7763 83.3484 24.5048C84.2391 24.2108 85.1392 23.8786 85.9769 23.4888C86.6527 23.1693 87.3347 22.8626 87.9981 22.5271C89.3435 21.8402 90.6764 21.1406 92.0125 20.4345C94.3077 19.2204 96.6404 18.0926 99.0913 17.1437C99.8107 16.9105 100.53 16.7156 101.281 16.5687C101.598 16.5527 101.913 16.5495 102.234 16.5623C102.614 16.6358 102.984 16.722 103.355 16.8306C103.959 17.0926 104.532 17.3929 105.083 17.7284C105.965 18.3993 106.731 19.1342 107.472 19.9169C108.11 20.6613 108.736 21.4153 109.384 22.1469C110.306 23.1853 111.2 24.23 112.296 25.1406C113.738 26.3418 115.554 27.1342 117.457 27.6134C118.251 27.8147 119.092 27.869 119.908 27.9616C120.77 28.0607 121.642 28.0032 122.499 27.9137C123.564 27.7987 124.601 27.6485 125.638 27.4057C126.684 27.1629 127.684 26.7572 128.677 26.3802C130.241 25.7891 131.689 24.9552 133.128 24.1693C135.507 22.8722 137.787 21.4409 140.169 20.1501C142.371 18.9584 144.648 17.8913 146.996 16.9393C147.65 16.7188 148.304 16.5207 148.992 16.3802C149.145 16.3738 149.294 16.3738 149.447 16.3802C149.609 16.4153 149.768 16.4568 149.927 16.5016C150.325 16.6805 150.705 16.8818 151.076 17.1022C152.216 17.9425 153.231 18.8913 154.262 19.8306C155.383 20.8466 156.576 21.7859 157.862 22.6421C158.416 23.0064 158.967 23.361 159.54 23.6965C160.11 24.0287 160.708 24.3067 161.325 24.5687C162.48 25.0575 163.695 25.4473 164.966 25.6262C165.464 25.7092 165.968 25.7572 166.473 25.7763C167.118 25.8115 167.812 25.7029 168.435 25.6198C169.547 25.476 170.571 25.2044 171.609 24.837C173.138 24.2875 174.589 23.6517 175.997 22.9009C181.145 20.1565 185.944 16.8882 191.384 14.5719C192.369 14.2428 193.353 13.9648 194.396 13.7827C194.904 13.754 195.402 13.754 195.91 13.7827C196.617 13.9105 197.295 14.083 197.971 14.2971C199.376 14.8945 200.665 15.639 201.93 16.4345C203.509 17.5271 205.044 18.6933 206.71 19.6773C207.395 20.0862 208.087 20.4664 208.822 20.8115C209.597 21.1693 210.438 21.4409 211.276 21.6677C211.833 21.7827 212.397 21.8626 212.97 21.9041C213.316 21.9552 213.664 21.9776 214.016 21.9776C214.689 22 215.412 21.885 216.062 21.8019C216.825 21.706 217.545 21.5559 218.283 21.361C219.217 21.115 220.108 20.7476 221.002 20.4153C221.528 20.2236 222.048 20.0032 222.553 19.7731C224.561 18.8562 226.558 17.9201 228.557 16.9904C230.301 16.1821 232.073 15.4409 233.873 14.738C236.15 13.9648 238.448 13.2588 240.862 12.8818C241.765 12.8179 242.653 12.8083 243.556 12.869C244.331 13 245.082 13.1789 245.826 13.4089C246.754 13.8019 247.607 14.2588 248.455 14.7699C249.112 15.2332 249.753 15.7092 250.395 16.1917C251.447 16.9872 252.544 17.7316 253.671 18.4536C254.107 18.7348 254.58 18.9808 255.048 19.2236C255.823 19.6262 256.708 19.8977 257.552 20.1597C257.95 20.262 258.352 20.3386 258.766 20.3929C259.361 20.4632 259.956 20.5335 260.554 20.6038C262.139 20.7156 263.64 20.5527 265.21 20.3642C266.446 20.2172 267.679 19.9073 268.853 19.5463C271.27 18.7955 273.625 17.9425 275.979 17.0511C277.994 16.2875 279.975 15.4473 281.977 14.6581C284.852 13.6134 287.795 12.5687 290.865 12.0767C291.439 12.0351 292.002 12.0223 292.578 12.0447C292.933 12.1118 293.279 12.1917 293.625 12.2907C294.357 12.6134 295.032 12.9968 295.702 13.4185C296.571 14.0287 297.43 14.6517 298.303 15.2652C299.29 15.9552 300.327 16.6677 301.451 17.1853C302.569 17.7029 303.858 18 305.126 18.0575C306.325 18.1086 307.512 17.9521 308.686 17.7444C309.882 17.5335 311.012 17.1086 312.133 16.706C313.027 16.3834 313.911 16.0479 314.793 15.6965C315.892 15.2588 316.985 14.8115 318.088 14.3802C320.919 13.4153 323.796 12.5942 326.739 11.9105C328.309 11.5463 329.885 11.2013 331.442 10.8019C332.853 10.4409 334.245 9.95205 335.55 9.37378C336.752 8.84343 337.792 8.05429 338.804 7.2939C339.639 6.66451 340.271 5.86579 340.997 5.14694C341.427 4.77314 341.726 4.33224 341.888 3.82106C342.137 3.0447 342.006 2.20125 341.539 1.50796C341.087 0.83384 340.333 0.335438 339.468 0.12777C339.169 0.0574826 338.879 0.0223389 338.593 0.0223389C337.973 0.0223389 337.381 0.175693 336.796 0.42809L336.783 0.405725ZM201.266 15.9616C201.329 16.0032 201.391 16.0447 201.453 16.0894C201.391 16.0479 201.329 16.0064 201.266 15.9616Z" fill="#5AC566"/>
</g>
<defs>
<clipPath id="clip0_4154_3645">
<rect width="342" height="28" fill="white"/>
</clipPath>
</defs>
</svg>
